# xmcd
#
# Track frame offsets:
#	150
#	8815
#	18312
#	28236
#	37192
#	46144
#	56559
#	63502
#	75610
#	85982
#	100227
#	111152
#	120117
#	128972
#	139222
#	149209
#	158066
#	169228
#	181590
#	189710
#	201491
#	213406
#	224847
#	239792
#
# Disc length: 3311 seconds
#
# Revision: 1
# Processed by: cddbd v1.5.2PL0 Copyright (c) Steve Scherf et al.
# Submitted via: audiograbber 1.83.01
#
DISCID=6c0ced18
DTITLE=don gibson - that gibson boy (1959) look who's blue (1960)
DYEAR=2013
DGENRE=Country
TTITLE0=even tho'
TTITLE1=it's my way
TTITLE2=midnight
TTITLE3=as much
TTITLE4=do you think
TTITLE5=didn't work out, did it?
TTITLE6=won't cha come back to me
TTITLE7=i wish it had been a dream
TTITLE8=ages and ages ago
TTITLE9=almost
TTITLE10=it has to be
TTITLE11=foggy river
TTITLE12=my hands are tied
TTITLE13=big hearted me
TTITLE14=it only hurts for a little while
TTITLE15=never love again
TTITLE16=lonely street
TTITLE17=just one time
TTITLE18=why don't you love me
TTITLE19=my love for you
TTITLE20=on the banks of the old ponchartrain
TTITLE21=if i can stay away long enough
TTITLE22=the streets of laredo
TTITLE23=everybody but me
EXTD=
EXTT0=
EXTT1=
EXTT2=
EXTT3=
EXTT4=
EXTT5=
EXTT6=
EXTT7=
EXTT8=
EXTT9=
EXTT10=
EXTT11=
EXTT12=
EXTT13=
EXTT14=
EXTT15=
EXTT16=
EXTT17=
EXTT18=
EXTT19=
EXTT20=
EXTT21=
EXTT22=
EXTT23=
PLAYORDER=
